<?xml version="1.0"?>
<svg xmlns="http://www.w3.org/2000/svg" viewBox="0 0 1024 1024" width="1024" height="1024">
  <defs>
    <radialGradient id="bg" cx="38%" cy="32%" r="90%"><stop offset="0%" stop-color="#0c1538"></stop><stop offset="38%" stop-color="#050a1d"></stop><stop offset="100%" stop-color="#01030a"></stop></radialGradient>
    <radialGradient id="aurora1" cx="22%" cy="22%" r="55%"><stop offset="0%" stop-color="#4ee3da" stop-opacity="0.28"></stop><stop offset="100%" stop-color="#4ee3da" stop-opacity="0"></stop></radialGradient>
    <radialGradient id="aurora2" cx="82%" cy="88%" r="55%"><stop offset="0%" stop-color="#c8ff4a" stop-opacity="0.22"></stop><stop offset="100%" stop-color="#c8ff4a" stop-opacity="0"></stop></radialGradient>
    <linearGradient id="moon-grad" x1="0" y1="0" x2="1" y2="1"><stop offset="0" stop-color="#c8ff4a"></stop><stop offset="1" stop-color="#4ee3da"></stop></linearGradient>
    <filter id="glow" x="-30%" y="-30%" width="160%" height="160%"><feGaussianBlur stdDeviation="6" result="b"></feGaussianBlur><feMerge><feMergeNode in="b"></feMergeNode><feMergeNode in="SourceGraphic"></feMergeNode></feMerge></filter>
  </defs>
  <rect width="1024" height="1024" fill="url(#bg)"></rect>
  <rect width="1024" height="1024" fill="url(#aurora1)"></rect>
  <rect width="1024" height="1024" fill="url(#aurora2)"></rect>
  <g transform="translate(195 195) scale(9.91875)" filter="url(#glow)">
    <path d="M44 8 A26 26 0 1 0 44 56 A20 20 0 1 1 44 8 Z" stroke="url(#moon-grad)" stroke-width="2.4" fill="none"></path>
    <path d="M22 20 Q18 32 24 44" stroke="#4ee3da" stroke-width="1" fill="none" opacity="0.8"></path>
    <path d="M22 20 Q12 32 24 44" stroke="#c8ff4a" stroke-width="1" fill="none" opacity="0.5"></path>
    <circle cx="22" cy="20" r="1.6" fill="#c8ff4a"></circle>
    <circle cx="18" cy="32" r="1.4" fill="#4ee3da"></circle>
    <circle cx="24" cy="44" r="1.6" fill="#4ee3da"></circle>
  </g>
</svg>